<?xml version="1.0" encoding="UTF-8" standalone="no"?>
<!-- Created with Inkscape (http://www.inkscape.org/) -->

<svg
   xmlns:dc="http://purl.org/dc/elements/1.1/"
   xmlns:cc="http://creativecommons.org/ns#"
   xmlns:rdf="http://www.w3.org/1999/02/22-rdf-syntax-ns#"
   xmlns:svg="http://www.w3.org/2000/svg"
   xmlns="http://www.w3.org/2000/svg"
   xmlns:sodipodi="http://sodipodi.sourceforge.net/DTD/sodipodi-0.dtd"
   xmlns:inkscape="http://www.inkscape.org/namespaces/inkscape"
   width="520px"
   height="520px"
   viewBox="0 0 520 520"
   version="1.1"
   id="SVGRoot"
   inkscape:version="0.92.3 (2405546, 2018-03-11)"
   sodipodi:docname="logo.svg">
  <sodipodi:namedview
     id="base"
     pagecolor="#ffffff"
     bordercolor="#666666"
     borderopacity="1.0"
     inkscape:pageopacity="0.0"
     inkscape:pageshadow="2"
     inkscape:zoom="0.7"
     inkscape:cx="368.28332"
     inkscape:cy="296.57947"
     inkscape:document-units="px"
     inkscape:current-layer="layer2"
     showgrid="false"
     inkscape:window-width="1366"
     inkscape:window-height="705"
     inkscape:window-x="-8"
     inkscape:window-y="-8"
     inkscape:window-maximized="1"
     inkscape:pagecheckerboard="true"
     showguides="true"
     inkscape:guide-bbox="true">
    <sodipodi:guide
       position="9.9664259,509.88986"
       orientation="1,0"
       id="guide598"
       inkscape:locked="false" />
    <sodipodi:guide
       position="512.5,510"
       orientation="0,1"
       id="guide600"
       inkscape:locked="false" />
    <sodipodi:guide
       position="510.11161,516.58482"
       orientation="1,0"
       id="guide602"
       inkscape:locked="false" />
    <sodipodi:guide
       position="0.034638729,9.9537354"
       orientation="0,1"
       id="guide604"
       inkscape:locked="false" />
  </sodipodi:namedview>
  <defs
     id="defs510" />
  <metadata
     id="metadata513">
    <rdf:RDF>
      <cc:Work
         rdf:about="">
        <dc:format>image/svg+xml</dc:format>
        <dc:type
           rdf:resource="http://purl.org/dc/dcmitype/StillImage" />
        <dc:title />
      </cc:Work>
    </rdf:RDF>
  </metadata>
  <g
     inkscape:groupmode="layer"
     id="layer2"
     inkscape:label="Layer 2"
     style="display:inline">
    <g
       style="display:inline"
       id="g56"
       transform="matrix(10.865144,0,0,10.865144,-2.4293689,-2.5478849)">
      <path
         sodipodi:nodetypes="cssssssccccccscccssssscccsscc"
         inkscape:connector-curvature="0"
         id="path3722"
         d="m 23.191066,24.375083 c -1.901729,-1.083747 -3.039285,-2.263641 -3.951222,-4.098279 -1.740866,-3.502281 -1.622508,-9.07963 0.27326,-12.8767482 0.579347,-1.1603995 1.296438,-2.156362 2.237953,-3.1082751 0.995706,-1.0067029 1.702565,-1.5354676 2.753998,-2.0601223 1.513632,-0.7552878 2.928512,-1.0697172 4.815538,-1.0701592 3.053253,-7.152e-4 5.352424,0.9646161 8.149307,3.4215729 l 0.927073,0.8143991 1.160277,-1.9413505 1.160277,-1.9413505 h 0.872364 0.872364 l 0.04951,0.7292038 c 0.02723,0.4010622 0.07346,4.0220957 0.102723,8.046741 l 0.05321,7.317538 -0.809362,-0.0255 -0.809362,-0.0255 -0.380781,-1.502602 C 39.53133,11.568461 38.049812,8.5290438 35.970148,6.4163449 33.947368,4.3614346 31.741382,3.3751232 29.161356,3.3720866 c -2.344612,-0.00276 -4.056344,0.7145235 -5.572607,2.3351407 -1.038032,1.1094736 -1.681799,2.3414342 -2.033002,3.890506 -0.227132,1.0018237 -0.200679,3.0708107 0.05204,4.0704347 0.509939,2.017032 1.69827,3.5423 3.483821,4.471616 0.523308,0.272362 1.296822,0.615139 1.262696,0.727699 -0.02471,0.0815 -0.364287,1.383407 -0.781629,2.866122 -0.897124,3.18727 -0.878395,3.292465 -0.957994,3.292465 -0.03387,0 -1.05125,-0.438785 -1.423617,-0.650987 z"
         style="display:inline;fill:#ffffff;fill-opacity:1;stroke:#000000;stroke-width:0.1;stroke-linecap:square;stroke-linejoin:round;stroke-miterlimit:4;stroke-dasharray:none;stroke-opacity:1" />
      <path
         sodipodi:nodetypes="cccscssszzzssccccsccscccccccssccssccsczzcc"
         inkscape:connector-curvature="0"
         id="path3720"
         d="m 31.562163,27.47308 c -0.413215,-0.125129 -1.019781,-0.306295 -1.347922,-0.402592 l -1.271368,-0.411681 -0.04419,-3.421305 c -0.02509,-1.942323 0.01957,-3.405647 0.05603,-3.405606 0.03646,4.2e-5 1.544137,0.200104 2.459144,0.444584 5.47805,1.463672 8.10405,2.629374 10.034059,4.454199 0.718232,0.679089 1.586709,1.77902 1.923135,2.455209 0,0 0.17051,0.336767 0.232405,0.467115 0.06189,0.130349 -0.332668,-0.71852 0.141846,0.313448 0.474514,1.031967 1.272137,4.765784 0.901412,7.760811 -0.370725,2.995027 -1.591423,5.705522 -3.564705,7.832922 -0.965039,1.040412 -1.995185,1.819921 -3.213921,2.431968 -1.181884,0.59354 -2.381016,0.94522 -3.84375,1.127292 -0.396644,0.04937 -2.317791,0.09284 -2.578125,0.05834 l -1e-6,6.7e-5 c -0.05156,-0.0068 -0.269531,-0.02784 -0.484375,-0.04668 -0.520969,-0.04569 -1.371728,-0.189558 -1.919564,-0.324616 -2.363702,-0.582724 -4.529371,-1.806524 -6.419797,-3.627768 -0.224818,-0.216592 -0.419731,-0.386994 -0.433137,-0.378672 -0.01341,0.0083 -0.671252,0.936956 -1.461877,2.063632 l -1.4375,2.0485 -0.914062,0.0013 -0.914063,0.0013 v -8.562972 -8.562972 l 0.912102,0.0083 0.912101,0.0083 0.101591,0.590442 c 0.831666,4.833593 2.603063,8.531697 5.390578,11.253783 1.95963,1.913633 3.985653,2.972581 6.379801,3.334549 0.608061,0.09193 2.14074,0.100383 2.741327,0.01512 1.152908,-0.163682 2.237887,-0.53944 3.153256,-1.092059 0.629734,-0.380178 1.35963,-1.003045 1.884101,-1.607825 1.284413,-1.481087 1.981068,-3.095151 2.216185,-5.134631 0.0574,-0.497887 0.04898,-1.716218 -0.01511,-2.1875 -0.186806,-1.373598 -0.659789,-2.531732 -1.416642,-3.46875 -0.263268,-0.325937 -0.841304,-0.877989 -1.205746,-1.151544 -1.106428,-0.830502 -3.68633,-1.841525 -5.194168,-2.315895 -1.507838,-0.47437 -0.920686,-0.296923 -0.972621,-0.319216 -0.05194,-0.02229 -0.786421,-0.248897 -0.786421,-0.248897 z"
         style="display:inline;fill:#ffffff;fill-opacity:1;stroke:#000000;stroke-width:0.1;stroke-linecap:square;stroke-linejoin:round;stroke-miterlimit:4;stroke-dasharray:none;stroke-opacity:1" />
    </g>
  </g>
  <g
     id="layer1"
     inkscape:groupmode="layer"
     inkscape:label="Layer 1"
     style="display:inline">
    <text
       xml:space="preserve"
       style="font-style:normal;font-variant:normal;font-weight:normal;font-stretch:normal;font-size:443.03131104px;line-height:1.25;font-family:Century;-inkscape-font-specification:Century;letter-spacing:0px;word-spacing:0px;display:inline;fill:#000000;fill-opacity:1;stroke:#000000;stroke-width:1.08651447;stroke-miterlimit:4;stroke-dasharray:none;stroke-opacity:1"
       x="37.927731"
       y="396.37375"
       id="text28"
       transform="scale(0.89533571,1.1168995)"><tspan
         sodipodi:role="line"
         id="tspan26"
         x="37.927731"
         y="396.37375"
         style="fill:#f9f9f9;stroke:#000000;stroke-width:1.08651447;stroke-miterlimit:4;stroke-dasharray:none;stroke-opacity:1">M</tspan></text>
    <path
       style="display:inline;fill:#ac9393;stroke-width:0.04244197"
       d="m 262.32482,189.82833 c -1.67459,-1.16238 -2.70576,-1.91423 -3.88343,-2.83149 -9.81854,-7.64732 -17.2638,-17.47802 -22.19891,-29.31135 -0.60617,-1.45349 -1.83334,-4.71696 -1.95302,-5.19377 -0.0261,-0.1043 -0.0185,-0.11147 0.11452,-0.11115 l 0.14255,2.7e-4 0.22697,0.66821 c 2.4515,7.21844 5.47916,13.19864 9.58184,18.92597 4.79285,6.69082 10.96069,12.69793 18.05438,17.58388 0.38517,0.26533 0.71841,0.49806 0.74057,0.5174 0.0217,0.0196 -0.0641,0.0348 -0.19101,0.0337 -0.21491,-0.001 -0.25978,-0.0217 -0.63452,-0.2813 z"
       id="path3740"
       inkscape:connector-curvature="0" />
    <path
       style="display:inline;fill:#ffffff;stroke-width:0.08488394"
       d="m 347.63475,297.48555 c -6.2823,-1.90016 -13.52201,-3.97597 -22.19715,-6.36446 -2.45103,-0.67483 -4.90524,-1.36583 -5.45379,-1.53556 -0.97341,-0.30118 -0.99743,-0.31454 -0.99743,-0.5551 0,-0.19535 0.0304,-0.23707 0.14853,-0.20133 0.0815,0.025 1.77195,0.5211 3.75611,1.10277 6.59311,1.93298 12.62406,3.73456 20.54192,6.13634 l 4.62617,1.4033 2.97094,0.003 2.97093,0.003 -1.95424,0.063 c -1.9843,0.0641 -2.67193,0.12864 -2.67193,0.25283 0,0.038 0.46796,0.22154 1.0398,0.40809 0.57194,0.18656 0.96341,0.33889 0.87008,0.33856 -0.0934,-3.3e-4 -1.73587,-0.47426 -3.65001,-1.05316 z"
       id="path3746"
       inkscape:connector-curvature="0" />
  </g>
</svg>
