<?xml version="1.0" encoding="UTF-8" standalone="no"?>
<!-- Created with Inkscape (http://www.inkscape.org/) -->

<svg
   xmlns:osb="http://www.openswatchbook.org/uri/2009/osb"
   xmlns:dc="http://purl.org/dc/elements/1.1/"
   xmlns:cc="http://creativecommons.org/ns#"
   xmlns:rdf="http://www.w3.org/1999/02/22-rdf-syntax-ns#"
   xmlns:svg="http://www.w3.org/2000/svg"
   xmlns="http://www.w3.org/2000/svg"
   xmlns:sodipodi="http://sodipodi.sourceforge.net/DTD/sodipodi-0.dtd"
   xmlns:inkscape="http://www.inkscape.org/namespaces/inkscape"
   width="48px"
   height="48px"
   viewBox="0 0 48 48"
   version="1.1"
   id="SVGRoot"
   inkscape:version="0.92.3 (2405546, 2018-03-11)"
   sodipodi:docname="logo.svg">
  <sodipodi:namedview
     id="base"
     pagecolor="#ffffff"
     bordercolor="#666666"
     borderopacity="1.0"
     inkscape:pageopacity="0.0"
     inkscape:pageshadow="2"
     inkscape:zoom="64"
     inkscape:cx="25.961359"
     inkscape:cy="21.442405"
     inkscape:document-units="px"
     inkscape:current-layer="layer1"
     showgrid="false"
     inkscape:window-width="1366"
     inkscape:window-height="705"
     inkscape:window-x="-8"
     inkscape:window-y="-8"
     inkscape:window-maximized="1"
     inkscape:grid-bbox="true"
     inkscape:pagecheckerboard="true"
     showguides="true"
     inkscape:guide-bbox="true"
     inkscape:snap-grids="true">
    <sodipodi:guide
       position="3.9375,10.5625"
       orientation="1,0"
       id="guide3716"
       inkscape:locked="false" />
  </sodipodi:namedview>
  <defs
     id="defs10">
    <linearGradient
       id="linearGradient873"
       osb:paint="solid">
      <stop
         style="stop-color:#ffffff;stop-opacity:1;"
         offset="0"
         id="stop871" />
    </linearGradient>
  </defs>
  <metadata
     id="metadata13">
    <rdf:RDF>
      <cc:Work
         rdf:about="">
        <dc:format>image/svg+xml</dc:format>
        <dc:type
           rdf:resource="http://purl.org/dc/dcmitype/StillImage" />
        <dc:title />
      </cc:Work>
    </rdf:RDF>
  </metadata>
  <g
     inkscape:groupmode="layer"
     id="layer2"
     inkscape:label="Layer 1"
     style="display:inline">
    <text
       xml:space="preserve"
       style="font-style:normal;font-variant:normal;font-weight:normal;font-stretch:normal;font-size:40.77546692px;line-height:1.25;font-family:Century;-inkscape-font-specification:Century;letter-spacing:0px;word-spacing:0px;display:inline;fill:#000000;fill-opacity:1;stroke:#000000;stroke-width:0.1;stroke-miterlimit:4;stroke-dasharray:none;stroke-opacity:1"
       x="3.7405019"
       y="36.691181"
       id="text28"
       transform="scale(0.89533572,1.1168995)"><tspan
         sodipodi:role="line"
         id="tspan26"
         x="3.7405019"
         y="36.691181"
         style="fill:#f9f9f9;stroke:#000000;stroke-width:0.1;stroke-miterlimit:4;stroke-dasharray:none;stroke-opacity:1">M</tspan></text>
    <path
       style="fill:#f9f9f9;stroke-width:0.015625"
       d=""
       id="path3728"
       inkscape:connector-curvature="0" />
    <path
       style="fill:#f9f9f9;stroke-width:0.015625"
       d=""
       id="path3730"
       inkscape:connector-curvature="0" />
    <path
       style="fill:#f9f9f9;stroke-width:0.00390625"
       d=""
       id="path3734"
       inkscape:connector-curvature="0" />
    <path
       style="fill:#ac9393;stroke-width:0.00390625"
       d="m 24.367297,17.705814 c -0.154125,-0.106983 -0.249031,-0.176181 -0.357421,-0.260603 -0.903673,-0.70384 -1.588916,-1.608633 -2.043131,-2.697742 -0.05579,-0.133775 -0.168736,-0.434137 -0.179751,-0.478021 -0.0024,-0.0096 -0.0017,-0.01026 0.01054,-0.01023 l 0.01312,2.5e-5 0.02089,0.0615 c 0.22563,0.664367 0.504288,1.214769 0.881888,1.741898 0.441122,0.615806 1.008794,1.168685 1.661679,1.618375 0.03545,0.02442 0.06612,0.04584 0.06816,0.04762 0.002,0.0018 -0.0059,0.0032 -0.01758,0.0031 -0.01978,-1.26e-4 -0.02391,-0.002 -0.0584,-0.02589 z"
       id="path3740"
       inkscape:connector-curvature="0" />
    <path
       style="fill:#ffffff;stroke-width:0.0078125"
       d="M 32.219004,27.614308 C 31.640797,27.439422 30.974473,27.24837 30.176035,27.02854 29.950449,26.96643 29.72457,26.902832 29.674082,26.887211 c -0.08959,-0.02772 -0.0918,-0.02895 -0.0918,-0.05109 0,-0.01798 0.0028,-0.02182 0.01367,-0.01853 0.0075,0.0023 0.163086,0.04796 0.345703,0.101496 0.606813,0.177906 1.161886,0.343719 1.890625,0.564773 l 0.425781,0.129156 0.273438,2.37e-4 0.273437,2.36e-4 -0.179864,0.0058 c -0.18263,0.0059 -0.245917,0.01184 -0.245917,0.02327 0,0.0035 0.04307,0.02039 0.0957,0.03756 0.05264,0.01717 0.08867,0.03119 0.08008,0.03116 -0.0086,-3.1e-5 -0.159765,-0.04365 -0.335937,-0.09693 z"
       id="path3746"
       inkscape:connector-curvature="0" />
    <path
       style="fill:#ffffff;stroke-width:0.0078125"
       d=""
       id="path3748"
       inkscape:connector-curvature="0" />
    <path
       style="fill:#ffffff;stroke-width:0.0078125"
       d=""
       id="path3750"
       inkscape:connector-curvature="0" />
    <path
       style="fill:#ffffff;stroke-width:0.0078125"
       d=""
       id="path3752"
       inkscape:connector-curvature="0" />
    <path
       style="fill:#ffffff;stroke-width:0.0078125"
       d=""
       id="path3756"
       inkscape:connector-curvature="0" />
  </g>
  <g
     inkscape:groupmode="layer"
     id="layer1"
     inkscape:label="Layer 2"
     style="display:inline">
    <path
       style="display:inline;fill:#ffffff;fill-opacity:1;stroke:#000000;stroke-width:0.1;stroke-linecap:square;stroke-linejoin:round;stroke-miterlimit:4;stroke-dasharray:none;stroke-opacity:1"
       d="m 23.191066,24.375083 c -1.901729,-1.083747 -3.039285,-2.263641 -3.951222,-4.098279 -1.740866,-3.502281 -1.622508,-9.07963 0.27326,-12.8767482 0.579347,-1.1603995 1.296438,-2.156362 2.237953,-3.1082751 0.995706,-1.0067029 1.702565,-1.5354676 2.753998,-2.0601223 1.513632,-0.7552878 2.928512,-1.0697172 4.815538,-1.0701592 3.053253,-7.152e-4 5.352424,0.9646161 8.149307,3.4215729 l 0.927073,0.8143991 1.160277,-1.9413505 1.160277,-1.9413505 h 0.872364 0.872364 l 0.04951,0.7292038 c 0.02723,0.4010622 0.07346,4.0220957 0.102723,8.046741 l 0.05321,7.317538 -0.809362,-0.0255 -0.809362,-0.0255 -0.380781,-1.502602 C 39.53133,11.568461 38.049812,8.5290438 35.970148,6.4163449 33.947368,4.3614346 31.741382,3.3751232 29.161356,3.3720866 c -2.344612,-0.00276 -4.056344,0.7145235 -5.572607,2.3351407 -1.038032,1.1094736 -1.681799,2.3414342 -2.033002,3.890506 -0.227132,1.0018237 -0.200679,3.0708107 0.05204,4.0704347 0.509939,2.017032 1.69827,3.5423 3.483821,4.471616 0.523308,0.272362 1.296822,0.615139 1.262696,0.727699 -0.02471,0.0815 -0.364287,1.383407 -0.781629,2.866122 -0.897124,3.18727 -0.878395,3.292465 -0.957994,3.292465 -0.03387,0 -1.05125,-0.438785 -1.423617,-0.650987 z"
       id="path3722"
       inkscape:connector-curvature="0"
       sodipodi:nodetypes="cssssssccccccscccssssscccsscc" />
    <path
       style="display:inline;fill:#ffffff;fill-opacity:1;stroke:#000000;stroke-width:0.1;stroke-linecap:square;stroke-linejoin:round;stroke-miterlimit:4;stroke-dasharray:none;stroke-opacity:1"
       d="m 31.562163,27.47308 c -0.413215,-0.125129 -1.019781,-0.306295 -1.347922,-0.402592 l -1.271368,-0.411681 -0.04419,-3.421305 c -0.02509,-1.942323 0.01957,-3.405647 0.05603,-3.405606 0.03646,4.2e-5 1.544137,0.200104 2.459144,0.444584 5.47805,1.463672 8.10405,2.629374 10.034059,4.454199 0.718232,0.679089 1.586709,1.77902 1.923135,2.455209 0,0 0.17051,0.336767 0.232405,0.467115 0.06189,0.130349 -0.332668,-0.71852 0.141846,0.313448 0.474514,1.031967 1.272137,4.765784 0.901412,7.760811 -0.370725,2.995027 -1.591423,5.705522 -3.564705,7.832922 -0.965039,1.040412 -1.995185,1.819921 -3.213921,2.431968 -1.181884,0.59354 -2.381016,0.94522 -3.84375,1.127292 -0.396644,0.04937 -2.317791,0.09284 -2.578125,0.05834 l -10e-7,6.7e-5 c -0.05156,-0.0068 -0.269531,-0.02784 -0.484375,-0.04668 -0.520969,-0.04569 -1.371728,-0.189558 -1.919564,-0.324616 -2.363702,-0.582724 -4.529371,-1.806524 -6.419797,-3.627768 -0.224818,-0.216592 -0.419731,-0.386994 -0.433137,-0.378672 -0.01341,0.0083 -0.671252,0.936956 -1.461877,2.063632 l -1.4375,2.0485 -0.914062,0.0013 -0.914063,0.0013 v -8.562972 -8.562972 l 0.912102,0.0083 0.912101,0.0083 0.101591,0.590442 c 0.831666,4.833593 2.603063,8.531697 5.390578,11.253783 1.95963,1.913633 3.985653,2.972581 6.379801,3.334549 0.608061,0.09193 2.14074,0.100383 2.741327,0.01512 1.152908,-0.163682 2.237887,-0.53944 3.153256,-1.092059 0.629734,-0.380178 1.35963,-1.003045 1.884101,-1.607825 1.284413,-1.481087 1.981068,-3.095151 2.216185,-5.134631 0.0574,-0.497887 0.04898,-1.716218 -0.01511,-2.1875 -0.186806,-1.373598 -0.659789,-2.531732 -1.416642,-3.46875 -0.263268,-0.325937 -0.841304,-0.877989 -1.205746,-1.151544 -1.106428,-0.830502 -3.68633,-1.841525 -5.194168,-2.315895 -1.507838,-0.47437 -0.920686,-0.296923 -0.972621,-0.319216 -0.05194,-0.02229 -0.786421,-0.248897 -0.786421,-0.248897 z"
       id="path3720"
       inkscape:connector-curvature="0"
       sodipodi:nodetypes="cccscssszzzssccccsccscccccccssccssccsczzcc" />
  </g>
</svg>
